<?xml version="1.0" encoding="utf-8"?>
<!-- Generator: Adobe Illustrator 14.0.0, SVG Export Plug-In . SVG Version: 6.00 Build 43363)  -->
<!DOCTYPE svg PUBLIC "-//W3C//DTD SVG 1.1//EN" "http://www.w3.org/Graphics/SVG/1.1/DTD/svg11.dtd">
<svg version="1.1" id="Layer_1" xmlns="http://www.w3.org/2000/svg" xmlns:xlink="http://www.w3.org/1999/xlink" x="0px" y="0px"
	 viewBox="0 0 500 500" enable-background="new 0 0 500 500" xml:space="preserve">
<g>
	<path fill="#E9030E" d="M251.25,288.594c-43.25-4.402-74.755-42.981-70.463-86.217c0.008-0.067,0.02-0.132,0.026-0.199
		c4.411-43.317-27.131-82.008-70.449-86.418c-43.317-4.41-82.008,27.129-86.418,70.447c-1.27,12.467,0.453,24.544,4.563,35.537
		c15.841,56.082,71.187,92.027,139.909,99.023c66.464,6.768,126.131-15.51,154.243-63.782
		C306.649,278.626,279.976,291.519,251.25,288.594z"/>
	<path fill="#E9030E" d="M450.649,32.667c-10.221-7.251-21.577-11.708-33.167-13.553C360.881,5.244,302.319,35.667,262.346,92.003
		c-38.659,54.485-48.701,117.378-20.566,165.638c-10.933-24.6-8.995-54.166,7.713-77.712c25.157-35.455,74.252-43.841,109.748-18.79
		c0.057,0.04,0.108,0.082,0.165,0.122c35.511,25.196,84.724,16.836,109.92-18.675C494.522,107.077,486.16,57.864,450.649,32.667z"/>
	<path fill="#E9030E" d="M414.523,287.83c-27.739-60.777-77.11-101.015-132.973-100.884c26.767,2.883,51.37,19.391,63.359,45.656
		c18.046,39.541,0.684,86.206-38.777,104.355c-0.07,0.032-0.143,0.059-0.214,0.092c-39.61,18.08-57.063,64.846-38.985,104.457
		c18.078,39.61,64.846,57.063,104.456,38.985c11.399-5.203,20.952-12.792,28.363-21.892
		C440.146,416.593,443.204,350.671,414.523,287.83z"/>
</g>
</svg>
